<?xml version="1.0" encoding="utf-8"?>
<!-- Generator: Adobe Illustrator 16.0.0, SVG Export Plug-In . SVG Version: 6.00 Build 0)  -->
<!DOCTYPE svg PUBLIC "-//W3C//DTD SVG 1.1//EN" "http://www.w3.org/Graphics/SVG/1.1/DTD/svg11.dtd">
<svg version="1.1" id="Layer_1" xmlns="http://www.w3.org/2000/svg" xmlns:xlink="http://www.w3.org/1999/xlink" x="0px" y="0px"
	 width="1280px" height="800px" viewBox="0 0 1280 800" enable-background="new 0 0 1280 800" xml:space="preserve">
<g>
	<path fill-rule="evenodd" clip-rule="evenodd" fill="#FFFFFF" d="M299.47,399.582c0-54.7-1.43-109.456,1.026-164.047
		c0.595-13.215,10.798-31.389,22.028-37.905C419.92,141.166,518.155,86.098,617.341,32.838c12.393-6.658,34.811-5.945,47.408,0.894
		c97.745,53.095,194.675,107.795,290.571,164.188c12.236,7.184,23.939,26.854,24.205,40.953
		c1.99,108.093,1.725,216.241,0.205,324.35c-0.173,12.377-9.182,30.15-19.459,36.025
		c-102.107,58.297-205.219,114.861-308.58,170.917c-6.385,3.471-18.479,0.87-25.964-2.843
		c-56.753-28.17-113.624-56.229-169.256-86.528c-47.643-25.952-94.314-53.854-139.912-83.229
		c-9.173-5.898-15.976-22.177-16.336-33.903C298.526,509.015,299.47,454.282,299.47,399.582z M603.735,124.223
		c-67.285,35.846-129.6,69.044-194.707,103.722c74.206,42.739,142.407,83.332,212.23,120.924
		c11.414,6.149,32.383,3.753,44.791-2.694c61.445-31.905,121.52-66.435,182.002-100.188c7.223-4.043,13.912-9.04,24.887-16.231
		c-66.482-35.634-129.04-69.161-195.623-104.842c0,38.094-0.4,75.679,0.148,113.255c0.359,24.996-7.725,43.515-35.337,44.142
		c-29.183,0.649-39.276-17.124-38.619-44.619C604.408,199.964,603.735,162.19,603.735,124.223z M914.744,293.698
		c-5.641,0.47-9.854-0.345-12.737,1.229c-63.114,34.507-125.476,70.423-189.349,103.409c-25.631,13.238-38.008,28.082-36.049,58.609
		c2.93,45.613,0.752,91.557,0.752,137.366c0,25.725,0,51.45,0,82.964c67.336-38.039,126.493-71.457,190.304-107.498
		c-40.937-25.475-75.968-48.042-111.782-69.286c-24.503-14.555-29.893-36.269-17.641-58.344c13.7-24.706,35.971-18.533,55.945-5.123
		c39.168,26.297,78.139,52.876,120.557,81.601C914.744,440.496,914.744,367.622,914.744,293.698z M369.32,517.247
		c20.81-13.817,36.441-23.985,51.853-34.482c24.805-16.889,47.913-37.467,74.868-49.437c12.616-5.608,41.96,0.384,46.813,9.823
		c6.282,12.221-1.316,34.592-8.727,49.758c-4.837,9.894-19.74,15.142-30.538,21.801c-29.238,18.048-58.696,35.743-91.067,55.413
		c66.905,37.42,126.776,70.915,191.111,106.902c0-84.146,0.854-162.692-1.03-241.159c-0.254-10.316-12.412-24.08-22.654-29.798
		c-50.905-28.42-103.271-54.224-154.581-81.945c-17.77-9.604-33.989-22.075-56.048-36.629
		C369.32,367.128,369.32,438.53,369.32,517.247z"/>
</g>
</svg>
